<?xml version="1.0" encoding="utf-8"?>
<!-- Generator: Adobe Illustrator 22.0.1, SVG Export Plug-In . SVG Version: 6.00 Build 0)  -->
<svg version="1.1" id="Capa_1" xmlns="http://www.w3.org/2000/svg" xmlns:xlink="http://www.w3.org/1999/xlink" x="0px" y="0px"
	 viewBox="0 0 149.3 49.1" style="enable-background:new 0 0 149.3 49.1;" xml:space="preserve">
<style type="text/css">
	.st0{fill-rule:evenodd;clip-rule:evenodd;fill:#FFFFFF;}
	.st1{fill:#FFB71B;}
</style>
<g>
	<path class="st0" d="M26.8,12.9c0,2.1-1.7,3-3.8,3c-2.1,0-3.8-1.3-3.8-3c0-1.7,1.7-3,3.8-3C25.1,9.9,26.8,11.2,26.8,12.9"/>
	<g>
		<g>
			<path class="st0" d="M12.8,10.2c0,0-3,10.4-5.1,18.8l-0.9,3.3c-0.4,1.5,0.6,1.6,0.6,1.6h5.7L11.8,39H5.4l0.1,0c0,0-3,0.2-4.4-1.3
				c-1.4-1.5-1.1-3.3-1-4.2c0.1-0.7,2.8-10.9,2.8-10.9l3.5-12.4H12.8z"/>
			<path class="st0" d="M53.3,10.2L48.7,29C45.8,38.7,36,38.9,36,38.9c-5.6,0.4-10.5-1.8-11-6.9C23.8,21.5,35.2,15,45.1,19
				c0.6-3,1.7-5.8,2.3-8.9H53.3z M32.6,25.5c-1.2,1.8-2,5.3-0.8,7.6c1.3,2.4,5.9,2.4,8.1,0.8c2.4-1.8,3.2-7.2,4.1-10.4
				C40.2,20.2,34.7,22.3,32.6,25.5"/>
			<path class="st0" d="M56.8,29.8c-1,6.8,9.1,5.8,12.4,3.2c-0.4,1.5-0.4,3.4-0.8,5c-8,2.4-17.1,0.7-17.9-6.5
				c-1-8.6,6.2-13.2,13.6-13.7c4.2-0.3,9.1,0.4,10.4,3.4c0.8,1.8,0.1,4.2-0.9,5.5C70.7,30.3,62.6,31.1,56.8,29.8 M62.8,26.5
				c2.5-0.2,7.1-1,6.2-3.4c-0.5-1.5-3.4-1.7-5.2-1.4c-2.8,0.5-4.8,2.5-5.8,4.4C59.3,26.5,61,26.6,62.8,26.5"/>
			<path class="st0" d="M94.1,18.1c0,0-1.6,4.5-1.6,4.7c-1.6-0.5-2.3-1.4-4.6-1.1c-5.8,0.6-7.1,7.9-8.2,13.8L79.1,39h-6
				c1.6-6.8,3.3-14.1,5-20.9c1.9,0,4,0,5.9,0l-0.3,1.6C86.2,18.2,90.3,17.2,94.1,18.1"/>
			<path class="st0" d="M25.7,18.2c-1.5,6.9-3.3,13.9-4.8,20.8h-6.1c1.3-5.5,2.5-10.9,3.8-16.4l-3.2,0l1.1-4.4L25.7,18.2z"/>
		</g>
		<g>
			<path class="st1" d="M122.8,16.5c1.2,0,2.1-0.6,2.2-1.4l1.1-12.8c0-1.3-1.5-2.3-3.4-2.3c-1.9,0-3.4,1-3.4,2.3l1.1,12.8
				C120.7,15.9,121.7,16.5,122.8,16.5L122.8,16.5z"/>
			<path class="st1" d="M115.9,20.5c0.6-1,0.5-2.1-0.1-2.6l-10.6-7.4c-1.1-0.6-2.7,0.1-3.7,1.7c-0.9,1.6-0.8,3.4,0.3,4.1l11.7,5.4
				C114.3,22,115.3,21.5,115.9,20.5L115.9,20.5z"/>
			<path class="st1" d="M129.8,20.5c0.6,1,1.6,1.5,2.3,1.2l11.7-5.4c1.1-0.6,1.3-2.4,0.3-4.1c-0.9-1.6-2.6-2.4-3.7-1.7l-10.6,7.4
				C129.2,18.4,129.2,19.5,129.8,20.5L129.8,20.5z"/>
			<path class="st1" d="M122.8,32.6c1.2,0,2.1,0.6,2.2,1.4l1.1,12.8c0,1.3-1.5,2.3-3.4,2.3c-1.9,0-3.4-1-3.4-2.3l1.1-12.8
				C120.7,33.2,121.7,32.6,122.8,32.6L122.8,32.6z"/>
			<path class="st1" d="M129.8,28.6c0.6-1,1.6-1.5,2.3-1.2l11.7,5.4c1.1,0.6,1.3,2.4,0.3,4.1c-0.9,1.6-2.6,2.4-3.7,1.7l-10.6-7.4
				C129.2,30.7,129.2,29.5,129.8,28.6L129.8,28.6z"/>
			<path class="st1" d="M115.9,28.6c0.6,1,0.5,2.1-0.1,2.6l-10.6,7.4c-1.1,0.6-2.7-0.1-3.7-1.7c-0.9-1.6-0.8-3.4,0.3-4.1l11.7-5.4
				C114.3,27,115.3,27.6,115.9,28.6L115.9,28.6z"/>
			<g>
				<g>
					<path class="st1" d="M147.5,37c0.3,0,0.6,0.1,0.9,0.2c0.3,0.2,0.5,0.4,0.7,0.7c0.2,0.3,0.2,0.6,0.2,0.9c0,0.3-0.1,0.6-0.2,0.9
						c-0.2,0.3-0.4,0.5-0.7,0.7c-0.3,0.2-0.6,0.2-0.9,0.2s-0.6-0.1-0.9-0.2c-0.3-0.2-0.5-0.4-0.7-0.7c-0.2-0.3-0.2-0.6-0.2-0.9
						c0-0.3,0.1-0.6,0.2-0.9c0.2-0.3,0.4-0.5,0.7-0.7C146.9,37.1,147.2,37,147.5,37z M147.5,37.3c-0.3,0-0.5,0.1-0.8,0.2
						c-0.2,0.1-0.4,0.3-0.6,0.6c-0.1,0.2-0.2,0.5-0.2,0.8c0,0.3,0.1,0.5,0.2,0.8c0.1,0.2,0.3,0.4,0.6,0.6c0.2,0.1,0.5,0.2,0.8,0.2
						c0.3,0,0.5-0.1,0.8-0.2c0.2-0.1,0.4-0.3,0.6-0.6c0.1-0.2,0.2-0.5,0.2-0.8c0-0.3-0.1-0.5-0.2-0.8c-0.1-0.2-0.3-0.4-0.6-0.6
						C148,37.4,147.8,37.3,147.5,37.3z M146.7,39.8v-2h0.7c0.2,0,0.4,0,0.5,0.1c0.1,0,0.2,0.1,0.2,0.2c0.1,0.1,0.1,0.2,0.1,0.3
						c0,0.1-0.1,0.3-0.2,0.4c-0.1,0.1-0.2,0.2-0.4,0.2c0.1,0,0.1,0.1,0.2,0.1c0.1,0.1,0.2,0.2,0.3,0.4l0.2,0.4H148l-0.2-0.3
						c-0.1-0.2-0.2-0.4-0.3-0.5c-0.1,0-0.1-0.1-0.3-0.1H147v0.8H146.7z M147,38.7h0.4c0.2,0,0.3,0,0.4-0.1c0.1-0.1,0.1-0.1,0.1-0.2
						c0-0.1,0-0.1,0-0.2c0,0-0.1-0.1-0.1-0.1c-0.1,0-0.2,0-0.3,0H147V38.7z"/>
				</g>
			</g>
		</g>
	</g>
</g>
</svg>
